<svg width="24" height="24" viewBox="0 0 24 24" fill="none" xmlns="http://www.w3.org/2000/svg">
<path d="M24 8.5C24 8.459 23.995 8.418 23.985 8.379L21.985 0.379C21.929 0.156 21.729 0 21.5 0H2.5C2.271 0 2.071 0.156 2.015 0.379L0.015 8.379C0.005 8.419 0 8.459 0 8.5C0 9.451 0.382 10.315 1 10.947V20.5C1 22.43 2.57 24 4.5 24H11.5C13.43 24 15 22.43 15 20.5V11.662C15.623 11.365 16.146 10.889 16.5 10.301C17.113 11.318 18.228 12 19.5 12H20.5C21.036 12 21.545 11.878 22 11.662V23.5C22 23.776 22.224 24 22.5 24C22.776 24 23 23.776 23 23.5V10.987C23 10.974 23 10.961 22.998 10.948C23.617 10.316 24 9.452 24 8.499V8.5ZM11.5 23H4.5C3.122 23 2 21.878 2 20.5V18H14V20.5C14 21.878 12.878 23 11.5 23ZM14 17H2V11.662C2.455 11.879 2.964 12 3.5 12H4.5C5.772 12 6.887 11.318 7.5 10.301C8.113 11.318 9.228 12 10.5 12H13.5C13.67 12 13.837 11.988 14 11.964V17ZM19.5 11C18.121 11 17 9.878 17 8.5C17 8.224 16.776 8 16.5 8C16.224 8 16 8.224 16 8.5C16 9.878 14.879 11 13.5 11H10.5C9.122 11 8 9.878 8 8.5C8 8.224 7.776 8 7.5 8C7.224 8 7 8.224 7 8.5C7 9.878 5.878 11 4.5 11H3.5C2.875 11 2.302 10.769 1.863 10.388C1.844 10.368 1.824 10.35 1.803 10.334C1.323 9.889 1.017 9.26 1 8.559L2.891 1H7V4.5C7 4.776 7.224 5 7.5 5C7.776 5 8 4.776 8 4.5V1H16V4.5C16 4.776 16.224 5 16.5 5C16.776 5 17 4.776 17 4.5V1H21.109L22.999 8.559C22.968 9.911 21.858 11 20.5 11H19.5Z" fill="#000"/>
</svg>
