<svg width="24" height="16" viewBox="0 0 24 16" fill="none" xmlns="http://www.w3.org/2000/svg">
<path d="M12.0003 15.9985C9.87927 15.9961 7.84582 15.1525 6.34605 13.6527C4.84627 12.1529 4.00265 10.1195 4.00027 7.99847C4.37627 -2.58953 19.6263 -2.58653 20.0003 7.99847C19.9979 10.1195 19.1543 12.1529 17.6545 13.6527C16.1547 15.1525 14.1213 15.9961 12.0003 15.9985ZM12.0003 1.99847C4.07127 2.25047 4.07227 13.7475 12.0003 13.9985C19.9293 13.7465 19.9283 2.24947 12.0003 1.99847ZM13.0003 3.99847H11.0003V8.99847H13.0003V3.99847ZM13.0003 9.99847H11.0003V11.9985H13.0003V9.99847ZM24.0003 7.99847C23.9983 5.21189 23.0288 2.51246 21.2573 0.361469L19.7143 1.63547C21.1825 3.43102 21.9846 5.67906 21.9846 7.99847C21.9846 10.3179 21.1825 12.5659 19.7143 14.3615L21.2573 15.6355C23.0288 13.4845 23.9983 10.785 24.0003 7.99847ZM4.28627 14.3615C2.81807 12.5659 2.01598 10.3179 2.01598 7.99847C2.01598 5.67906 2.81807 3.43102 4.28627 1.63547L2.74427 0.361469C0.982174 2.51656 0.0195312 5.21469 0.0195312 7.99847C0.0195312 10.7822 0.982174 13.4804 2.74427 15.6355L4.28627 14.3615Z" fill="#000"/>
</svg>
