<svg width="24" height="24" viewBox="0 0 24 24" fill="none" xmlns="http://www.w3.org/2000/svg">
<path d="M24 12C24 12.534 23.792 13.037 23.414 13.414L18.849 17.858L18.152 17.141L22.713 12.702C22.771 12.644 22.806 12.57 22.848 12.5H6V11.5H22.846C22.804 11.429 22.768 11.353 22.707 11.293L18.151 6.858L18.848 6.141L23.409 10.58C23.792 10.962 24 11.465 24 11.999V12ZM11 21.5C11 22.327 10.327 23 9.5 23H2.5C1.673 23 1 22.327 1 21.5V2.5C1 1.673 1.673 1 2.5 1H9.5C10.327 1 11 1.673 11 2.5V9H12V2.5C12 1.122 10.878 0 9.5 0H2.5C1.122 0 0 1.122 0 2.5V21.5C0 22.879 1.122 24 2.5 24H9.5C10.878 24 12 22.879 12 21.5V15H11V21.5Z" fill="#1F2747"/>
</svg>
