<svg width="24" height="24" viewBox="0 0 24 24" fill="none" xmlns="http://www.w3.org/2000/svg">
<path d="M4.5 3H5.05C5.28 4.14 6.29 5 7.5 5H10.5C11.71 5 12.72 4.14 12.95 3H13.5C15.43 3 17 4.57 17 6.5C17 6.78 17.22 7 17.5 7C17.78 7 18 6.78 18 6.5C18 4.02 15.98 2 13.5 2H12.95C12.72 0.86 11.71 0 10.5 0H7.5C6.29 0 5.28 0.86 5.05 2H4.5C2.02 2 0 4.02 0 6.5V19.5C0 21.98 2.02 24 4.5 24H9.5C9.78 24 10 23.78 10 23.5C10 23.22 9.78 23 9.5 23H4.5C2.57 23 1 21.43 1 19.5V6.5C1 4.57 2.57 3 4.5 3ZM7.5 1H10.5C11.33 1 12 1.67 12 2.5C12 3.33 11.33 4 10.5 4H7.5C6.67 4 6 3.33 6 2.5C6 1.67 6.67 1 7.5 1ZM20.5 9H15.5C13.57 9 12 10.57 12 12.5V20.5C12 22.43 13.57 24 15.5 24H20.5C22.43 24 24 22.43 24 20.5V12.5C24 10.57 22.43 9 20.5 9ZM23 20.5C23 21.88 21.88 23 20.5 23H15.5C14.12 23 13 21.88 13 20.5V12.5C13 11.12 14.12 10 15.5 10H20.5C21.88 10 23 11.12 23 12.5V20.5ZM21 13.5C21 13.78 20.78 14 20.5 14H15.5C15.22 14 15 13.78 15 13.5C15 13.22 15.22 13 15.5 13H20.5C20.78 13 21 13.22 21 13.5ZM21 17.5C21 17.78 20.78 18 20.5 18H15.5C15.22 18 15 17.78 15 17.5C15 17.22 15.22 17 15.5 17H20.5C20.78 17 21 17.22 21 17.5Z" fill="black"/>
</svg>
