<svg width="24" height="24" viewBox="0 0 24 24" fill="none" xmlns="http://www.w3.org/2000/svg">
<path d="M10 21.88V22.89C4.367 22.152 0 17.332 0 11.5C0 5.159 5.159 0 11.5 0C17.331 0 22.152 4.367 22.891 10H21.881C21.149 4.92 16.78 1 11.501 1C5.71 1 1 5.71 1 11.5C1 16.779 4.92 21.148 10 21.88ZM11 11.205L6.757 13.562L7.243 14.436L12 11.793V4.999H11V11.205ZM24 15.499V23.999H12V15.499C12 14.672 12.673 13.999 13.5 13.999H14V11.999H15V13.999H21V11.999H22V13.999H22.5C23.327 13.999 24 14.672 24 15.499ZM23 17.999H13V22.999H23V17.999ZM23 15.499C23 15.223 22.775 14.999 22.5 14.999H13.5C13.225 14.999 13 15.223 13 15.499V16.999H23V15.499Z" fill="#E5097F"/>
</svg>
