<svg width="24" height="20" viewBox="0 0 24 20" fill="none" xmlns="http://www.w3.org/2000/svg">
<path d="M21.97 7.322C22.042 7.519 21.983 7.741 21.822 7.876L20.639 8.84L21.128 10.33C21.195 10.532 21.128 10.754 20.959 10.883C20.79 11.012 20.559 11.021 20.381 10.906L19.004 10.009L17.65 10.915C17.566 10.971 17.469 10.999 17.372 10.999C17.266 10.999 17.161 10.966 17.072 10.899C16.902 10.772 16.831 10.551 16.895 10.349L17.365 8.841L16.176 7.874C16.016 7.738 15.958 7.517 16.03 7.321C16.102 7.124 16.29 6.993 16.499 6.993H17.999L18.53 5.503C18.603 5.307 18.79 5.178 18.999 5.178C19.208 5.178 19.395 5.308 19.468 5.503L19.999 6.993H21.499C21.709 6.993 21.898 7.124 21.97 7.322ZM14.5 6.993H13L12.469 5.503C12.396 5.307 12.209 5.178 12 5.178C11.791 5.178 11.604 5.308 11.531 5.503L11 6.993H9.49998C9.28998 6.993 9.10298 7.124 9.03098 7.321C8.95798 7.518 9.01698 7.739 9.17698 7.874L10.366 8.841L9.89598 10.349C9.83298 10.551 9.90298 10.772 10.073 10.899C10.162 10.965 10.267 10.999 10.373 10.999C10.47 10.999 10.567 10.971 10.651 10.915L12.005 10.009L13.382 10.906C13.56 11.021 13.791 11.012 13.96 10.883C14.128 10.753 14.196 10.531 14.129 10.33L13.64 8.84L14.823 7.876C14.984 7.741 15.043 7.519 14.971 7.322C14.899 7.125 14.711 6.993 14.501 6.993H14.5ZM7.49998 6.993H5.99998L5.46898 5.503C5.39598 5.307 5.20898 5.178 4.99998 5.178C4.79098 5.178 4.60398 5.308 4.53098 5.503L3.99998 6.993H2.49998C2.28998 6.993 2.10298 7.124 2.03098 7.321C1.95798 7.518 2.01698 7.739 2.17698 7.874L3.36598 8.841L2.89598 10.349C2.83298 10.551 2.90298 10.772 3.07298 10.899C3.16198 10.965 3.26698 10.999 3.37298 10.999C3.46998 10.999 3.56698 10.971 3.65098 10.915L5.00498 10.009L6.38198 10.906C6.55998 11.021 6.79098 11.012 6.95998 10.883C7.12798 10.753 7.19598 10.531 7.12898 10.33L6.63998 8.84L7.82298 7.876C7.98398 7.741 8.04298 7.519 7.97098 7.322C7.89898 7.125 7.70998 6.993 7.49998 6.993ZM24 3.499V12.499C24 14.429 22.43 15.999 20.5 15.999H16.968L12.983 19.294C12.708 19.539 12.357 19.662 12.005 19.662C11.649 19.662 11.289 19.536 11.004 19.283L7.10598 15.999H3.50098C1.57098 15.999 0.000976562 14.429 0.000976562 12.499V3.5C0.000976562 1.57 1.57098 0 3.50098 0H20.501C22.431 0 24.001 1.57 24.001 3.5L24 3.499ZM23 3.499C23 2.121 21.879 0.999 20.5 0.999H3.49998C2.12098 0.999 0.999977 2.121 0.999977 3.499V12.499C0.999977 13.877 2.12098 14.999 3.49998 14.999H7.28798C7.40598 14.999 7.51998 15.041 7.60998 15.117L11.658 18.527C11.857 18.705 12.143 18.703 12.332 18.535L16.47 15.114C16.56 15.04 16.672 14.999 16.788 14.999H20.5C21.879 14.999 23 13.877 23 12.499V3.499Z" fill="black"/>
</svg>
