<svg width="24" height="24" viewBox="0 0 24 24" fill="none" xmlns="http://www.w3.org/2000/svg">
<path d="M19.5 0H4.5C2.02 0 0 2.02 0 4.5V19.5C0 21.98 2.02 24 4.5 24H19.5C21.98 24 24 21.98 24 19.5V4.5C24 2.02 21.98 0 19.5 0ZM23 19.5C23 21.43 21.43 23 19.5 23H4.5C2.57 23 1 21.43 1 19.5V4.5C1 2.57 2.57 1 4.5 1H19.5C21.43 1 23 2.57 23 4.5V19.5ZM19 13.5C19 13.78 18.78 14 18.5 14H8.5C8.22 14 8 13.78 8 13.5C8 13.22 8.22 13 8.5 13H18.5C18.78 13 19 13.22 19 13.5ZM19 17.5C19 17.78 18.78 18 18.5 18H11.5C11.22 18 11 17.78 11 17.5C11 17.22 11.22 17 11.5 17H18.5C18.78 17 19 17.22 19 17.5ZM19 9.5C19 9.78 18.78 10 18.5 10H5.5C5.22 10 5 9.78 5 9.5C5 9.22 5.22 9 5.5 9H18.5C18.78 9 19 9.22 19 9.5ZM19 5.5C19 5.78 18.78 6 18.5 6H15.5C15.22 6 15 5.78 15 5.5C15 5.22 15.22 5 15.5 5H18.5C18.78 5 19 5.22 19 5.5Z" fill="black"/>
</svg>
